<?xml version="1.0" encoding="iso-8859-1"?>
<!-- Generator: Adobe Illustrator 19.0.0, SVG Export Plug-In . SVG Version: 6.00 Build 0)  -->
<svg version="1.1" id="Capa_1" xmlns="http://www.w3.org/2000/svg" xmlns:xlink="http://www.w3.org/1999/xlink" x="0px" y="0px"
	 viewBox="0 0 468.293 468.293" style="enable-background:new 0 0 468.293 468.293;" xml:space="preserve">
<path style="fill:#56c4fe;" d="M164.96,0L69.569,95.392v354.169c0,10.345,8.386,18.732,18.732,18.732h291.691
	c10.345,0,18.732-8.386,18.732-18.732V18.732C398.724,8.386,390.337,0,379.992,0L164.96,0L164.96,0z"/>
<polygon style="fill:#56fee4;" points="164.96,95.392 164.96,0 69.569,95.392 "/>
<g>
	<path style="fill:#56fee4;" d="M160.664,167.44v37.463c0,3.434-2.747,6.244-6.244,6.244h-37.463c-3.434,0-6.244-2.809-6.244-6.244
		V167.44c0-3.496,2.81-6.244,6.244-6.244h37.463C157.916,161.196,160.664,163.944,160.664,167.44z"/>
	<path style="fill:#56fee4;" d="M154.444,279.806h-37.463c-3.448,0-6.244-2.796-6.244-6.244v-37.463
		c0-3.448,2.795-6.244,6.244-6.244h37.463c3.448,0,6.244,2.796,6.244,6.244v37.463C160.688,277.011,157.892,279.806,154.444,279.806
		z"/>
	<path style="fill:#56fee4;" d="M154.444,348.489h-37.463c-3.448,0-6.244-2.796-6.244-6.244v-37.463
		c0-3.448,2.795-6.244,6.244-6.244h37.463c3.448,0,6.244,2.796,6.244,6.244v37.463C160.688,345.694,157.892,348.489,154.444,348.489
		z"/>
	<path style="fill:#56fee4;" d="M154.444,417.172h-37.463c-3.448,0-6.244-2.796-6.244-6.244v-37.463
		c0-3.448,2.795-6.244,6.244-6.244h37.463c3.448,0,6.244,2.796,6.244,6.244v37.463C160.688,414.377,157.892,417.172,154.444,417.172
		z"/>
	<path style="fill:#fff;" d="M351.312,179.906H201.458c-3.448,0-6.244,2.793-6.244,6.244s2.796,6.244,6.244,6.244h149.854
		c3.448,0,6.244-2.793,6.244-6.244S354.76,179.906,351.312,179.906z"/>
	<path style="fill:#fff;" d="M351.312,248.587H201.458c-3.448,0-6.244,2.793-6.244,6.244c0,3.451,2.796,6.244,6.244,6.244
		h149.854c3.448,0,6.244-2.793,6.244-6.244C357.556,251.379,354.76,248.587,351.312,248.587z"/>
	<path style="fill:#fff;" d="M351.312,317.27H201.458c-3.448,0-6.244,2.793-6.244,6.244s2.796,6.244,6.244,6.244h149.854
		c3.448,0,6.244-2.793,6.244-6.244S354.76,317.27,351.312,317.27z"/>
	<path style="fill:#fff;" d="M351.312,385.953H201.458c-3.448,0-6.244,2.793-6.244,6.244c0,3.451,2.796,6.244,6.244,6.244
		h149.854c3.448,0,6.244-2.793,6.244-6.244C357.556,388.745,354.76,385.953,351.312,385.953z"/>
</g>
<g>
	<path style="fill:#fff;" d="M160.664,198.659v6.244c0,3.434-2.747,6.244-6.244,6.244h-37.463c-3.434,0-6.244-2.809-6.244-6.244
		v-6.244H160.664z"/>
	<path style="fill:#fff;" d="M160.664,267.318v6.244c0,3.434-2.747,6.244-6.244,6.244h-37.463c-3.434,0-6.244-2.809-6.244-6.244
		v-6.244H160.664z"/>
	<path style="fill:#fff;" d="M160.664,336.001v6.244c0,3.434-2.747,6.244-6.244,6.244h-37.463c-3.434,0-6.244-2.809-6.244-6.244
		v-6.244H160.664z"/>
	<path style="fill:#fff;" d="M160.664,404.684v6.244c0,3.434-2.747,6.244-6.244,6.244h-37.463c-3.434,0-6.244-2.809-6.244-6.244
		v-6.244H160.664z"/>
</g>
<g>
</g>
<g>
</g>
<g>
</g>
<g>
</g>
<g>
</g>
<g>
</g>
<g>
</g>
<g>
</g>
<g>
</g>
<g>
</g>
<g>
</g>
<g>
</g>
<g>
</g>
<g>
</g>
<g>
</g>
</svg>
