<svg xmlns="http://www.w3.org/2000/svg" viewBox="0 0 511.333 511.333">
  <defs/>
  <path d="M505.581 161.762C439.43 22.11 441.247 25.735 441.147 25.735 433.741 10.102 417.778 0 400.479 0H110.855C93.556 0 77.593 10.102 70.187 25.735c-.1 0 1.749-3.693-64.434 136.027-15.683 33.108 2.862 71.412 36.914 80.802V381c0 24.813 20.187 45 45 45h147v43.333H149c-11.598 0-21 9.402-21 21s9.402 21 21 21h213.333c11.598 0 21-9.402 21-21s-9.402-21-21-21h-85.667V426h147c24.813 0 45-20.187 45-45V242.565c34.072-9.396 52.589-47.713 36.915-80.803zM276.667 42h37.478l30.819 117.11c5.793 22.013-10.794 43.556-33.576 43.556-19.145 0-34.72-15.575-34.72-34.72V42zm-42 125.947c0 33.137-42.115 47.275-62.218 21.198-6.624-8.594-8.84-19.54-6.079-30.034L197.189 42h37.478zM43.711 179.742c65.015-137.256 64.533-136.126 64.433-136.026A3.016 3.016 0 01110.856 42h42.904l-35.469 134.782c-4.011 15.24-17.818 25.884-33.577 25.884H58.218c-11.789.001-19.551-12.277-14.507-22.924zM423.667 384h-336c-1.654 0-3-1.346-3-3 0-142.822-.054-136.333.046-136.333 22.601 0 43.377-9.915 57.605-26.077 29.843 34.069 82.374 34.771 113.349 2.012 30.995 32.781 83.524 32.035 113.349-2.012 14.228 16.161 35.004 26.077 57.605 26.077.1 0 .046-6.46.046 136.333 0 1.654-1.346 3-3 3zm29.449-181.333H426.62c-15.759 0-29.566-10.644-33.577-25.884L357.575 42h42.904c1.153 0 2.218.673 2.712 1.716-.1-.101-.283-.596 64.433 136.026 5.046 10.654-2.727 22.925-14.508 22.925z"/>
</svg>
