<svg xmlns="http://www.w3.org/2000/svg" viewBox="0 0 512 512">
  <defs/>
  <path d="M0 0v270.192h241v52.952H37.952v82.952H0V512h105.904V406.096H67.952v-52.952H241v52.952h-37.952V512h105.904V406.096H271v-52.952h173.048v52.952h-37.952V512H512V406.096h-37.952v-82.952H271v-52.952h241V0H0zm75.904 436.096V482H30v-45.904h45.904zm406.096 0V482h-45.904v-45.904H482zm-203.048 0V482h-45.904v-45.904h45.904zM482 240.192H30v-90.096h452v90.096zm0-120.096H30V30h452v90.096z"/>
  <path d="M60.04 60.05h30.02v30H60.04zM120.08 60.05h30.02v30h-30.02zM361.88 60.05h30.02v30h-30.02zM421.93 60.05h30.02v30h-30.02zM60.04 180.14h30.02v30H60.04zM120.08 180.14h30.02v30h-30.02zM361.88 180.14h30.02v30h-30.02zM421.93 180.14h30.02v30h-30.02z"/>
</svg>
