<svg xmlns="http://www.w3.org/2000/svg" viewBox="0 -20 512 512">
  <defs/>
  <path d="M279.715 177c13.437 0 23.16 12.727 19.512 25.555l-45.422 159.797C251.34 371.016 243.367 377 234.285 377c-13.437 0-23.16-12.727-19.512-25.555l45.422-159.797c2.465-8.664 10.438-14.648 19.52-14.648zM125.39 272.793l49.46-41.469c8.462-7.094 9.57-19.71 2.477-28.176-7.098-8.46-19.71-9.57-28.176-2.476l-49.527 41.523c-.031.028-.066.055-.098.082C89.023 251.2 83 264.22 83 278s6.023 26.8 16.527 35.723c.032.023.063.054.098.082l49.523 41.52a19.908 19.908 0 0012.84 4.675c5.711 0 11.383-2.434 15.336-7.148 7.098-8.465 5.989-21.082-2.476-28.176l-49.457-41.469C123.313 281.422 123 279.18 123 278s.313-3.422 2.39-5.207zm260.132 10.488l-48.527 41.524c-8.39 7.18-9.375 19.804-2.191 28.199A19.962 19.962 0 00350.012 360c4.597 0 9.222-1.578 12.992-4.805l48.469-41.476C421.977 304.8 428 291.78 428 278s-6.023-26.8-16.473-35.672l-48.523-41.523c-8.395-7.184-21.02-6.2-28.2 2.191-7.183 8.395-6.199 21.02 2.192 28.2l48.582 41.57c2.106 1.789 2.422 4.046 2.422 5.234 0 1.184-.312 3.441-2.477 5.281zM512 60v232c0 11.047-8.953 20-20 20s-20-8.953-20-20V121H40v271c0 22.055 17.945 40 40 40h352c22.055 0 40-17.945 40-40 0-11.047 8.953-20 20-20s20 8.953 20 20c0 44.113-35.887 80-80 80H80c-44.113 0-80-35.887-80-80V60C0 26.914 26.914 0 60 0h392c33.086 0 60 26.914 60 60zm-161 0c0 11.027 8.973 20 20 20s20-8.973 20-20-8.973-20-20-20-20 8.973-20 20zm100-20c-11.027 0-20 8.973-20 20s8.973 20 20 20 20-8.973 20-20-8.973-20-20-20zM40 81h274.8a59.66 59.66 0 01-3.8-21 59.657 59.657 0 013.441-20H60c-11.027 0-20 8.973-20 20zm0 0"/>
</svg>
